<svg width="35" height="41" viewBox="0 0 35 41" fill="none" xmlns="http://www.w3.org/2000/svg">
<path d="M23.584 39.9223L20.868 29.7783M20.868 29.7783L15.848 34.2283L16.986 15.2883L27.44 31.1223L20.868 29.7783ZM5.832 29.2443C3.91344 27.3255 2.49771 24.9632 1.7102 22.3665C0.922691 19.7699 0.787713 17.0191 1.31722 14.3579C1.84673 11.6966 3.02438 9.20703 4.74587 7.10962C6.46735 5.0122 8.67953 3.37171 11.1864 2.33345C13.6934 1.29519 16.4177 0.891206 19.118 1.15729C21.8183 1.42336 24.4114 2.35129 26.6675 3.85888C28.9235 5.36646 30.773 7.40717 32.052 9.80024C33.331 12.1933 34.0001 14.8649 34 17.5783M10.076 25.0023C8.85485 23.7813 7.95367 22.2781 7.45231 20.6256C6.95094 18.9732 6.86486 17.2226 7.20169 15.5289C7.53852 13.8353 8.28786 12.2508 9.38334 10.916C10.4788 9.58112 11.8866 8.53704 13.482 7.87624C15.0774 7.21544 16.8111 6.95832 18.5296 7.12765C20.2481 7.29698 21.8983 7.88754 23.3341 8.84701C24.7698 9.80648 25.9468 11.1052 26.7606 12.6282C27.5745 14.1512 28.0002 15.8515 28 17.5783" stroke="white" stroke-width="1.5" stroke-linecap="round" stroke-linejoin="round"/>
</svg>
