<svg width="39" height="39" viewBox="0 0 39 39" fill="none" xmlns="http://www.w3.org/2000/svg">
<path d="M28.5 10.5H10.5V28.5H28.5V10.5Z" fill="white"/>
<path fill-rule="evenodd" clip-rule="evenodd" d="M12 0C12.3978 0 12.7794 0.158035 13.0607 0.43934C13.342 0.720644 13.5 1.10218 13.5 1.5V3H18V1.5C18 1.10218 18.158 0.720644 18.4393 0.43934C18.7206 0.158035 19.1022 0 19.5 0C19.8978 0 20.2794 0.158035 20.5607 0.43934C20.842 0.720644 21 1.10218 21 1.5V3H25.5V1.5C25.5 1.10218 25.658 0.720644 25.9393 0.43934C26.2206 0.158035 26.6022 0 27 0C27.3978 0 27.7794 0.158035 28.0607 0.43934C28.342 0.720644 28.5 1.10218 28.5 1.5V3H30C31.5913 3 33.1174 3.63214 34.2426 4.75736C35.3679 5.88258 36 7.4087 36 9V10.5H37.5C37.8978 10.5 38.2794 10.658 38.5607 10.9393C38.842 11.2206 39 11.6022 39 12C39 12.3978 38.842 12.7794 38.5607 13.0607C38.2794 13.342 37.8978 13.5 37.5 13.5H36V18H37.5C37.8978 18 38.2794 18.158 38.5607 18.4393C38.842 18.7206 39 19.1022 39 19.5C39 19.8978 38.842 20.2794 38.5607 20.5607C38.2794 20.842 37.8978 21 37.5 21H36V25.5H37.5C37.8978 25.5 38.2794 25.658 38.5607 25.9393C38.842 26.2206 39 26.6022 39 27C39 27.3978 38.842 27.7794 38.5607 28.0607C38.2794 28.342 37.8978 28.5 37.5 28.5H36V30C36 31.5913 35.3679 33.1174 34.2426 34.2426C33.1174 35.3679 31.5913 36 30 36H28.5V37.5C28.5 37.8978 28.342 38.2794 28.0607 38.5607C27.7794 38.842 27.3978 39 27 39C26.6022 39 26.2206 38.842 25.9393 38.5607C25.658 38.2794 25.5 37.8978 25.5 37.5V36H21V37.5C21 37.8978 20.842 38.2794 20.5607 38.5607C20.2794 38.842 19.8978 39 19.5 39C19.1022 39 18.7206 38.842 18.4393 38.5607C18.158 38.2794 18 37.8978 18 37.5V36H13.5V37.5C13.5 37.8978 13.342 38.2794 13.0607 38.5607C12.7794 38.842 12.3978 39 12 39C11.6022 39 11.2206 38.842 10.9393 38.5607C10.658 38.2794 10.5 37.8978 10.5 37.5V36H9C7.4087 36 5.88258 35.3679 4.75736 34.2426C3.63214 33.1174 3 31.5913 3 30V28.5H1.5C1.10218 28.5 0.720644 28.342 0.43934 28.0607C0.158035 27.7794 0 27.3978 0 27C0 26.6022 0.158035 26.2206 0.43934 25.9393C0.720644 25.658 1.10218 25.5 1.5 25.5H3V21H1.5C1.10218 21 0.720644 20.842 0.43934 20.5607C0.158035 20.2794 0 19.8978 0 19.5C0 19.1022 0.158035 18.7206 0.43934 18.4393C0.720644 18.158 1.10218 18 1.5 18H3V13.5H1.5C1.10218 13.5 0.720644 13.342 0.43934 13.0607C0.158035 12.7794 0 12.3978 0 12C0 11.6022 0.158035 11.2206 0.43934 10.9393C0.720644 10.658 1.10218 10.5 1.5 10.5H3V9C3 7.4087 3.63214 5.88258 4.75736 4.75736C5.88258 3.63214 7.4087 3 9 3H10.5V1.5C10.5 1.10218 10.658 0.720644 10.9393 0.43934C11.2206 0.158035 11.6022 0 12 0ZM7.5 9C7.5 8.60218 7.65804 8.22064 7.93934 7.93934C8.22064 7.65804 8.60218 7.5 9 7.5H30C30.3978 7.5 30.7794 7.65804 31.0607 7.93934C31.342 8.22064 31.5 8.60218 31.5 9V30C31.5 30.3978 31.342 30.7794 31.0607 31.0607C30.7794 31.342 30.3978 31.5 30 31.5H9C8.60218 31.5 8.22064 31.342 7.93934 31.0607C7.65804 30.7794 7.5 30.3978 7.5 30V9Z" fill="white"/>
</svg>
