<svg width="24" height="24" viewBox="0 0 24 24" fill="none" xmlns="http://www.w3.org/2000/svg">
<path d="M8.25006 3V4.5M4.50006 8.25H3.00006M21.0001 8.25H19.5001M4.50006 12H3.00006M21.0001 12H19.5001M4.50006 15.75H3.00006M21.0001 15.75H19.5001M8.25006 19.5V21M12.0001 3V4.5M12.0001 19.5V21M15.7501 3V4.5M15.7501 19.5V21M6.75006 19.5H17.2501C17.8468 19.5 18.4191 19.2629 18.8411 18.841C19.263 18.419 19.5001 17.8467 19.5001 17.25V6.75C19.5001 6.15326 19.263 5.58097 18.8411 5.15901C18.4191 4.73705 17.8468 4.5 17.2501 4.5H6.75006C6.15332 4.5 5.58103 4.73705 5.15907 5.15901C4.73711 5.58097 4.50006 6.15326 4.50006 6.75V17.25C4.50006 17.8467 4.73711 18.419 5.15907 18.841C5.58103 19.2629 6.15332 19.5 6.75006 19.5ZM7.50006 7.5H16.5001V16.5H7.50006V7.5Z" stroke="white" stroke-width="1.5" stroke-linecap="round" stroke-linejoin="round"/>
</svg>
