<svg width="42" height="39" viewBox="0 0 42 39" fill="none" xmlns="http://www.w3.org/2000/svg">
<path fill-rule="evenodd" clip-rule="evenodd" d="M1.5 -6.10352e-05C1.10218 -6.10352e-05 0.720644 0.157974 0.43934 0.439279C0.158035 0.720583 0 1.10211 0 1.49994C0 1.89776 0.158035 2.27929 0.43934 2.5606C0.720644 2.8419 1.10218 2.99994 1.5 2.99994H3V23.9999C3 25.5912 3.63214 27.1174 4.75736 28.2426C5.88258 29.3678 7.4087 29.9999 9 29.9999H11.42L9.076 37.0259C8.95029 37.4036 8.97975 37.8157 9.15791 38.1717C9.33607 38.5276 9.64833 38.7982 10.026 38.9239C10.4037 39.0497 10.8158 39.0202 11.1718 38.842C11.5277 38.6639 11.7983 38.3516 11.924 37.9739L12.582 35.9999H29.418L30.078 37.9739C30.2146 38.3371 30.4865 38.6332 30.8368 38.8001C31.187 38.967 31.5883 38.9917 31.9563 38.869C32.3244 38.7463 32.6306 38.4858 32.8107 38.1421C32.9907 37.7984 33.0306 37.3984 32.922 37.0259L30.582 29.9999H33C34.5913 29.9999 36.1174 29.3678 37.2426 28.2426C38.3679 27.1174 39 25.5912 39 23.9999V2.99994H40.5C40.8978 2.99994 41.2794 2.8419 41.5607 2.5606C41.842 2.27929 42 1.89776 42 1.49994C42 1.10211 41.842 0.720583 41.5607 0.439279C41.2794 0.157974 40.8978 -6.10352e-05 40.5 -6.10352e-05H1.5ZM14.58 29.9999H27.42L28.42 32.9999H13.58L14.58 29.9999ZM30.75 12.0099C30.922 11.9122 31.0729 11.7813 31.1941 11.625C31.3153 11.4687 31.4044 11.2899 31.4562 11.099C31.508 10.9081 31.5216 10.7088 31.4961 10.5126C31.4706 10.3165 31.4066 10.1273 31.3076 9.95595C31.2087 9.78463 31.0769 9.63457 30.9198 9.51441C30.7626 9.39425 30.5833 9.30635 30.392 9.25579C30.2008 9.20523 30.0014 9.19299 29.8054 9.21979C29.6094 9.24659 29.4207 9.31189 29.25 9.41194C26.5231 10.9904 24.1107 13.0583 22.134 15.5119L19.06 12.4399C18.7787 12.159 18.3975 12.0013 18 12.0013C17.6025 12.0013 17.2213 12.159 16.94 12.4399L10.94 18.4399C10.7926 18.5773 10.6744 18.7429 10.5924 18.9269C10.5105 19.1109 10.4664 19.3095 10.4628 19.5109C10.4593 19.7123 10.4963 19.9124 10.5718 20.0991C10.6472 20.2859 10.7595 20.4556 10.9019 20.598C11.0444 20.7405 11.214 20.8527 11.4008 20.9282C11.5876 21.0036 11.7876 21.0407 11.989 21.0371C12.1905 21.0336 12.3891 20.9895 12.5731 20.9075C12.7571 20.8255 12.9227 20.7073 13.06 20.5599L18 15.6199L21.234 18.8559C21.3892 19.0111 21.5765 19.1303 21.7827 19.2052C21.9889 19.2801 22.2091 19.3088 22.4277 19.2894C22.6462 19.2699 22.8578 19.2028 23.0476 19.0926C23.2374 18.9825 23.4007 18.8321 23.526 18.6519C25.419 15.9361 27.885 13.6687 30.75 12.0099Z" fill="white"/>
</svg>
