<svg width="39" height="41" viewBox="0 0 39 41" fill="none" xmlns="http://www.w3.org/2000/svg">
<path fill-rule="evenodd" clip-rule="evenodd" d="M20.532 0.411434C20.2534 0.147255 19.884 0 19.5 0C19.116 0 18.7467 0.147255 18.468 0.411434C14.2226 4.4432 8.56826 6.65409 2.71401 6.57143C2.39508 6.56729 2.08313 6.66492 1.82346 6.85014C1.56379 7.03536 1.36993 7.29853 1.27001 7.60143C0.425959 10.1738 -0.00275053 12.8642 1.32782e-05 15.5714C1.32782e-05 27.4554 8.12801 37.4374 19.126 40.2674C19.3713 40.3307 19.6287 40.3307 19.874 40.2674C30.872 37.4374 39 27.4554 39 15.5714C39 12.7914 38.554 10.1114 37.73 7.60143C37.6304 7.29815 37.4367 7.03455 37.177 6.84894C36.9173 6.66334 36.6052 6.56543 36.286 6.56943L36 6.57143C30.008 6.57143 24.566 4.23143 20.532 0.411434ZM26.72 16.4434C26.84 16.2835 26.9268 16.1013 26.9754 15.9073C27.0239 15.7134 27.0332 15.5117 27.0027 15.3141C26.9722 15.1166 26.9025 14.9271 26.7977 14.7568C26.6929 14.5866 26.5552 14.439 26.3925 14.3227C26.2299 14.2065 26.0456 14.1239 25.8506 14.0799C25.6556 14.0359 25.4538 14.0313 25.257 14.0664C25.0602 14.1015 24.8723 14.1755 24.7046 14.2843C24.5368 14.393 24.3925 14.5341 24.28 14.6994L17.808 23.7594L14.56 20.5114C14.2757 20.2465 13.8996 20.1022 13.511 20.1091C13.1224 20.1159 12.7516 20.2734 12.4768 20.5482C12.2019 20.823 12.0445 21.1938 12.0377 21.5824C12.0308 21.971 12.1751 22.3471 12.44 22.6314L16.94 27.1314C17.094 27.2853 17.2796 27.4038 17.484 27.4787C17.6884 27.5536 17.9066 27.5832 18.1235 27.5653C18.3405 27.5474 18.5509 27.4825 18.7403 27.3751C18.9296 27.2677 19.0933 27.1204 19.22 26.9434L26.72 16.4434Z" fill="white"/>
</svg>
