<svg width="64" height="64" viewBox="0 0 64 64" fill="none" xmlns="http://www.w3.org/2000/svg">
<g id="Frame">
<path id="Vector" d="M14 38H50M14 38C11.8783 38 9.84344 37.1571 8.34315 35.6569C6.84286 34.1566 6 32.1217 6 30M14 38C11.8783 38 9.84344 38.8429 8.34315 40.3431C6.84286 41.8434 6 43.8783 6 46C6 48.1217 6.84286 50.1566 8.34315 51.6569C9.84344 53.1571 11.8783 54 14 54H50C52.1217 54 54.1566 53.1571 55.6569 51.6569C57.1571 50.1566 58 48.1217 58 46C58 43.8783 57.1571 41.8434 55.6569 40.3431C54.1566 38.8429 52.1217 38 50 38M50 38C52.1217 38 54.1566 37.1571 55.6569 35.6569C57.1571 34.1566 58 32.1217 58 30M6 30C6 27.8783 6.84286 25.8434 8.34315 24.3431C9.84344 22.8429 11.8783 22 14 22H50C52.1217 22 54.1566 22.8429 55.6569 24.3431C57.1571 25.8434 58 27.8783 58 30M6 30C6 27.4036 6.84213 24.8772 8.4 22.8L15.2987 13.6C16.137 12.4822 17.224 11.575 18.4737 10.9502C19.7234 10.3253 21.1015 10 22.4987 10H41.5013C44.3333 10 47 11.3333 48.7013 13.6L55.6 22.8C57.1579 24.8772 58 27.4036 58 30M50 46H50.0213V46.0213H50V46ZM50 30H50.0213V30.0213H50V30ZM42 46H42.0213V46.0213H42V46ZM42 30H42.0213V30.0213H42V30Z" stroke="url(#paint0_linear_29_972)" stroke-width="1.5" stroke-linecap="round" stroke-linejoin="round"/>
</g>
<defs>
<linearGradient id="paint0_linear_29_972" x1="58" y1="10" x2="14.6069" y2="61.2828" gradientUnits="userSpaceOnUse">
<stop stop-color="#8E54E9"/>
<stop offset="1" stop-color="#4776E6"/>
</linearGradient>
</defs>
</svg>
