<svg width="35" height="32" viewBox="0 0 35 32" fill="none" xmlns="http://www.w3.org/2000/svg">
<path d="M14.5 4H34M14.5 4C14.5 4.79565 14.1839 5.55871 13.6213 6.12132C13.0587 6.68393 12.2956 7 11.5 7C10.7044 7 9.94129 6.68393 9.37868 6.12132C8.81607 5.55871 8.5 4.79565 8.5 4M14.5 4C14.5 3.20435 14.1839 2.44129 13.6213 1.87868C13.0587 1.31607 12.2956 1 11.5 1C10.7044 1 9.94129 1.31607 9.37868 1.87868C8.81607 2.44129 8.5 3.20435 8.5 4M8.5 4H1M14.5 28H34M14.5 28C14.5 28.7956 14.1839 29.5587 13.6213 30.1213C13.0587 30.6839 12.2956 31 11.5 31C10.7044 31 9.94129 30.6839 9.37868 30.1213C8.81607 29.5587 8.5 28.7956 8.5 28M14.5 28C14.5 27.2044 14.1839 26.4413 13.6213 25.8787C13.0587 25.3161 12.2956 25 11.5 25C10.7044 25 9.94129 25.3161 9.37868 25.8787C8.81607 26.4413 8.5 27.2044 8.5 28M8.5 28H1M26.5 16H34M26.5 16C26.5 16.7956 26.1839 17.5587 25.6213 18.1213C25.0587 18.6839 24.2956 19 23.5 19C22.7044 19 21.9413 18.6839 21.3787 18.1213C20.8161 17.5587 20.5 16.7956 20.5 16M26.5 16C26.5 15.2044 26.1839 14.4413 25.6213 13.8787C25.0587 13.3161 24.2956 13 23.5 13C22.7044 13 21.9413 13.3161 21.3787 13.8787C20.8161 14.4413 20.5 15.2044 20.5 16M20.5 16H1" stroke="white" stroke-width="1.5" stroke-linecap="round" stroke-linejoin="round"/>
</svg>
