<svg width="64" height="64" viewBox="0 0 64 64" fill="none" xmlns="http://www.w3.org/2000/svg">
<g id="Frame">
<path id="Vector" d="M45.4907 41.3893C46.7381 40.5375 48.2013 40.0562 49.7108 40.0012C51.2204 39.9462 52.7147 40.3197 54.0208 41.0785C55.327 41.8373 56.3916 42.9504 57.0916 44.289C57.7915 45.6276 58.0981 47.137 57.976 48.6427C54.7765 49.7609 51.3781 50.196 48 49.92C47.9896 46.8977 47.1193 43.938 45.4907 41.392C44.0451 39.1248 42.051 37.2588 39.6929 35.9667C37.3348 34.6746 34.6889 33.9982 32 34C29.3116 33.9986 26.6662 34.6753 24.3086 35.9673C21.951 37.2594 19.9573 39.1251 18.512 41.392M47.9973 49.9173L48 50C48 50.6 47.968 51.192 47.9013 51.776C43.0623 54.5523 37.5789 56.0089 32 56C26.2133 56 20.7813 54.464 16.0987 51.776C16.0301 51.1589 15.9972 50.5383 16 49.9173M16 49.9173C12.623 50.2034 9.22642 49.7698 6.02933 48.6453C5.9076 47.1401 6.21439 45.6312 6.91421 44.2931C7.61403 42.9549 8.67832 41.8421 9.98401 41.0834C11.2897 40.3247 12.7835 39.9511 14.2926 40.0057C15.8017 40.0603 17.2646 40.5409 18.512 41.392M16 49.9173C16.0096 46.8953 16.8843 43.9383 18.512 41.392M40 18C40 20.1217 39.1571 22.1566 37.6569 23.6569C36.1566 25.1571 34.1217 26 32 26C29.8783 26 27.8434 25.1571 26.3431 23.6569C24.8429 22.1566 24 20.1217 24 18C24 15.8783 24.8429 13.8434 26.3431 12.3431C27.8434 10.8429 29.8783 10 32 10C34.1217 10 36.1566 10.8429 37.6569 12.3431C39.1571 13.8434 40 15.8783 40 18ZM56 26C56 26.7879 55.8448 27.5681 55.5433 28.2961C55.2418 29.0241 54.7998 29.6855 54.2426 30.2426C53.6855 30.7998 53.0241 31.2417 52.2961 31.5433C51.5681 31.8448 50.7879 32 50 32C49.2121 32 48.4319 31.8448 47.7039 31.5433C46.9759 31.2417 46.3145 30.7998 45.7574 30.2426C45.2002 29.6855 44.7583 29.0241 44.4567 28.2961C44.1552 27.5681 44 26.7879 44 26C44 24.4087 44.6321 22.8826 45.7574 21.7574C46.8826 20.6321 48.4087 20 50 20C51.5913 20 53.1174 20.6321 54.2426 21.7574C55.3679 22.8826 56 24.4087 56 26ZM20 26C20 26.7879 19.8448 27.5681 19.5433 28.2961C19.2418 29.0241 18.7998 29.6855 18.2426 30.2426C17.6855 30.7998 17.0241 31.2417 16.2961 31.5433C15.5681 31.8448 14.7879 32 14 32C13.2121 32 12.4319 31.8448 11.7039 31.5433C10.9759 31.2417 10.3145 30.7998 9.75736 30.2426C9.20021 29.6855 8.75825 29.0241 8.45672 28.2961C8.1552 27.5681 8 26.7879 8 26C8 24.4087 8.63214 22.8826 9.75736 21.7574C10.8826 20.6321 12.4087 20 14 20C15.5913 20 17.1174 20.6321 18.2426 21.7574C19.3679 22.8826 20 24.4087 20 26Z" stroke="url(#paint0_linear_29_968)" stroke-width="1.5" stroke-linecap="round" stroke-linejoin="round"/>
</g>
<defs>
<linearGradient id="paint0_linear_29_968" x1="58.0022" y1="10" x2="12.3456" y2="61.6107" gradientUnits="userSpaceOnUse">
<stop stop-color="#8E54E9"/>
<stop offset="1" stop-color="#4776E6"/>
</linearGradient>
</defs>
</svg>
